<?xml version="1.0" encoding="UTF-8"?>
<svg xmlns="http://www.w3.org/2000/svg" version="1.1" xmlns:cc="http://creativecommons.org/ns#" xmlns:dc="http://purl.org/dc/elements/1.1/" xmlns:rdf="http://www.w3.org/1999/02/22-rdf-syntax-ns#" xmlns:svg="http://www.w3.org/2000/svg" viewBox="0 0 526.8 140.4">
  <defs>
    <style>
      .cls-1 {
        fill: #fff;
      }
    </style>
  </defs>
  <!-- Generator: Adobe Illustrator 28.7.1, SVG Export Plug-In . SVG Version: 1.2.0 Build 142)  -->
  <g>
    <g id="svg2">
      <g id="g10">
        <g id="g12">
          <path id="path14" class="cls-1" d="M63.2,0H22.2c-2.8,0-5.2,2-5.6,4.8L0,109.9c-.3,2.1,1.3,3.9,3.4,3.9h19.6c2.8,0,5.2-2,5.6-4.8l4.5-28.3c.4-2.8,2.8-4.8,5.6-4.8h13c27,0,42.6-13.1,46.6-38.9,1.8-11.3,0-20.2-5.2-26.5C87.3,3.6,76.9,0,63.2,0h0ZM67.9,38.4c-2.2,14.7-13.5,14.7-24.3,14.7h-6.2l4.3-27.5c.3-1.7,1.7-2.9,3.4-2.9h2.8c7.4,0,14.4,0,18,4.2,2.2,2.5,2.8,6.3,2,11.4"/>
          <path id="path16" class="cls-1" d="M185.7,37.9h-19.6c-1.7,0-3.1,1.2-3.4,2.9l-.9,5.5-1.4-2c-4.2-6.2-13.7-8.2-23.2-8.2-21.7,0-40.2,16.4-43.8,39.5-1.9,11.5.8,22.5,7.3,30.1,6,7,14.5,10,24.7,10,17.5,0,27.2-11.2,27.2-11.2l-.9,5.5c-.3,2.1,1.3,4,3.4,4h17.7c2.8,0,5.2-2,5.6-4.8l10.6-67.2c.3-2.1-1.3-3.9-3.4-3.9ZM158.3,76.1c-1.9,11.2-10.8,18.7-22.1,18.7s-10.3-1.8-13.2-5.3c-2.9-3.4-4-8.3-3.1-13.8,1.8-11.1,10.8-18.9,22-18.9s10.1,1.9,13.1,5.3c3,3.5,4.2,8.5,3.3,13.9"/>
          <path id="path18" class="cls-1" d="M290.2,37.9h-19.7c-1.9,0-3.6.9-4.7,2.5l-27.2,40.1-11.5-38.5c-.7-2.4-2.9-4.1-5.5-4.1h-19.4c-2.4,0-4,2.3-3.2,4.5l21.7,63.7-20.4,28.8c-1.6,2.3,0,5.4,2.8,5.4h19.7c1.9,0,3.6-.9,4.7-2.4l65.6-94.7c1.6-2.3,0-5.4-2.8-5.4"/>
          <path id="path20" class="cls-1" d="M355.5,0h-41c-2.8,0-5.2,2-5.6,4.8l-16.6,105.1c-.3,2.1,1.3,3.9,3.4,3.9h21c2,0,3.6-1.4,3.9-3.4l4.7-29.8c.4-2.8,2.8-4.8,5.6-4.8h13c27,0,42.6-13.1,46.6-38.9,1.8-11.3,0-20.2-5.2-26.5C379.5,3.6,369.2,0,355.5,0h0ZM360.2,38.4c-2.2,14.7-13.5,14.7-24.3,14.7h-6.2l4.3-27.5c.3-1.7,1.7-2.9,3.4-2.9h2.8c7.4,0,14.4,0,18,4.2,2.2,2.5,2.8,6.3,2,11.4"/>
          <path id="path22" class="cls-1" d="M477.9,37.9h-19.6c-1.7,0-3.1,1.2-3.4,2.9l-.9,5.5-1.4-2c-4.2-6.2-13.7-8.2-23.2-8.2-21.7,0-40.2,16.4-43.8,39.5-1.9,11.5.8,22.5,7.3,30.1,6,7,14.5,10,24.7,10,17.5,0,27.2-11.2,27.2-11.2l-.9,5.5c-.3,2.1,1.3,4,3.4,4h17.7c2.8,0,5.2-2,5.6-4.8l10.6-67.2c.3-2.1-1.3-3.9-3.4-3.9h0ZM450.6,76.1c-1.9,11.2-10.8,18.7-22.1,18.7s-10.3-1.8-13.2-5.3c-2.9-3.4-4-8.3-3.1-13.8,1.8-11.1,10.8-18.9,22-18.9s10.1,1.9,13.1,5.3c3,3.5,4.2,8.5,3.3,13.9"/>
          <path id="path24" class="cls-1" d="M501.1,2.9l-16.8,107c-.3,2.1,1.3,3.9,3.4,3.9h16.9c2.8,0,5.2-2,5.6-4.8l16.6-105.1c.3-2.1-1.3-3.9-3.4-3.9h-18.9c-1.7,0-3.1,1.2-3.4,2.9"/>
        </g>
      </g>
    </g>
  </g>
</svg>